<svg width="229.006" height="121.023" xmlns="http://www.w3.org/2000/svg"><defs><marker orient="auto" id="a" overflow="visible"><path d="M-10 0l-4 4 14-4-14-4 4 4z" fill-rule="evenodd" stroke="#000" stroke-width="NaN"/></marker></defs><g transform="translate(11.198 -245.756)"><path d="M133.254 291.316h13.4" stroke="#000" stroke-width=".25" stroke-dasharray="0.25, 0.75" fill="none"/><path d="M7.711 267.316h17.543" stroke="#000" stroke-width=".25" stroke-dasharray="0.25, 0.75" fill="none"/><path d="M22.254 345.316v6" stroke="#000" stroke-width=".25" stroke-dasharray="0.25, 0.75" fill="none"/><path d="M25.254 267.316v-16.435" stroke="#000" stroke-width=".25" stroke-dasharray="0.25, 0.75" marker-end="url(#a)" fill="none"/><path d="M181.254 351.316h31.429" stroke="#000" stroke-width=".25" stroke-dasharray="0.25, 0.75" marker-end="url(#a)" fill="none"/><path d="M25.254 351.316h156v-2l4-4v-54l-4-4v-16l-3.962-4h-152.038z" fill="#c3d6eb" stroke="#000" stroke-width=".25" stroke-linecap="round" stroke-linejoin="round"/><path d="M54.854 271.316v-8.119" stroke="#000" stroke-width=".25" stroke-dasharray="0.25, 0.75" fill="none"/><path d="M7.712 347.316h169.123" stroke="#000" stroke-width=".25" stroke-dasharray="0.25, 0.75" fill="none"/><path stroke="#000" stroke-width=".25" stroke-linecap="round" stroke-linejoin="round" d="M22.254 332.316h21v14h-21z"/><path fill="#eeeeec" stroke="#000" stroke-width=".25" stroke-linecap="round" stroke-linejoin="round" d="M15.254 282.316h25v18h-25z"/><text style="text-align:start;line-height:125%;-inkscape-font-specification:Sans" x="-1.203" y="333.746" font-size="4" letter-spacing="0" word-spacing="0" font-family="Sans"><tspan x="-1.203" y="333.746">475</tspan></text><text y="346.016" x="-1.119" style="text-align:start;line-height:125%;-inkscape-font-specification:Sans" font-size="4" letter-spacing="0" word-spacing="0" font-family="Sans"><tspan y="346.016" x="-1.119">125</tspan></text><text y="289.885" x="23.755" style="text-align:start;line-height:125%;-inkscape-font-specification:Sans" font-size="4" letter-spacing="0" word-spacing="0" font-family="Sans"><tspan style="text-align:start;line-height:125%;-inkscape-font-specification:Sans" y="289.885" x="23.755" font-size="4" font-family="Sans">USB</tspan><tspan style="text-align:start;line-height:125%;-inkscape-font-specification:Sans" y="294.885" x="23.755" font-size="4" font-family="Sans">jack</tspan></text><text y="345.08" x="198.997" style="text-align:start;line-height:125%;-inkscape-font-specification:Sans" font-size="4" letter-spacing="0" word-spacing="0" font-family="Sans"><tspan y="345.08" x="198.997">150</tspan></text><text style="text-align:start;line-height:125%;-inkscape-font-specification:Sans" x="199.127" y="349.936" font-size="4" letter-spacing="0" word-spacing="0" font-family="Sans"><tspan x="199.127" y="349.936">50</tspan></text><text y="292.772" x="198.997" style="text-align:start;line-height:125%;-inkscape-font-specification:Sans" font-size="4" letter-spacing="0" word-spacing="0" font-family="Sans"><tspan y="292.772" x="198.997">1500</tspan></text><text style="text-align:start;line-height:125%;-inkscape-font-specification:Sans" x="198.997" y="288.772" font-size="4" letter-spacing="0" word-spacing="0" font-family="Sans"><tspan x="198.997" y="288.772">1600</tspan></text><text style="text-align:start;line-height:125%;-inkscape-font-specification:Sans" x="199.143" y="268.772" font-size="4" letter-spacing="0" word-spacing="0" font-family="Sans"><tspan x="199.143" y="268.772">2100</tspan></text><text style="text-align:start;line-height:125%;-inkscape-font-specification:Sans" x="26.741" y="337.858" font-size="4" letter-spacing="0" word-spacing="0" fill="#fff" font-family="Sans"><tspan x="26.741" y="337.858" style="text-align:start;line-height:125%;-inkscape-font-specification:Sans" font-size="4" fill="#fff" font-family="Sans">Power</tspan><tspan x="26.741" y="342.858" style="text-align:start;line-height:125%;-inkscape-font-specification:Sans" font-size="4" fill="#fff" font-family="Sans">jack</tspan></text><path d="M131.75 339.316c0 1.379-1.118 2.496-2.496 2.496-1.379 0-2.496-1.118-2.496-2.496 0-1.379 1.118-2.496 2.496-2.496 1.379 0 2.496 1.118 2.496 2.496z" fill="#fff" stroke="#000" stroke-width=".25" stroke-linecap="round" stroke-linejoin="round"/><path d="M131.75 295.316c0 1.379-1.118 2.496-2.496 2.496-1.379 0-2.496-1.118-2.496-2.496 0-1.379 1.118-2.496 2.496-2.496 1.379 0 2.496 1.118 2.496 2.496z" fill="#fff" stroke="#000" stroke-width=".25" stroke-linecap="round" stroke-linejoin="round"/><text y="293.096" x="130.937" style="text-align:start;line-height:125%;-inkscape-font-specification:Sans" font-size="2" letter-spacing="0" word-spacing="0" font-family="Sans"><tspan y="293.096" x="130.937">(2600, 1400)</tspan></text><text style="text-align:start;line-height:125%;-inkscape-font-specification:Sans" x="130.881" y="336.706" font-size="2" letter-spacing="0" word-spacing="0" font-family="Sans"><tspan x="130.881" y="336.706">(2600, 300)</tspan></text><text y="274.146" x="42.492" style="text-align:start;line-height:125%;-inkscape-font-specification:Sans" font-size="2" letter-spacing="0" word-spacing="0" font-family="Sans"><tspan y="274.146" x="42.492">(600,</tspan><tspan y="276.646" x="42.492">2000)</tspan></text><g transform="translate(4)"><rect width="2.351" height="4.702" x="76.078" y="344.965" rx="1.175" ry="1.175" fill="#4e9a06"/><path d="M77.903 347.316c0 .359-.291.65-.65.65-.359 0-.65-.291-.65-.65 0-.359.291-.65.65-.65.359 0 .65.291.65.65z" fill="#fff"/></g><g transform="translate(8)"><rect ry="1.175" rx="1.175" y="344.965" x="76.078" height="4.702" width="2.351" fill="#4e9a06"/><path d="M77.903 347.316c0 .359-.291.65-.65.65-.359 0-.65-.291-.65-.65 0-.359.291-.65.65-.65.359 0 .65.291.65.65z" fill="#fff"/></g><g transform="translate(12)"><rect width="2.351" height="4.702" x="76.078" y="344.965" rx="1.175" ry="1.175" fill="#4e9a06"/><path d="M77.903 347.316c0 .359-.291.65-.65.65-.359 0-.65-.291-.65-.65 0-.359.291-.65.65-.65.359 0 .65.291.65.65z" fill="#fff"/></g><g transform="translate(16)"><rect ry="1.175" rx="1.175" y="344.965" x="76.078" height="4.702" width="2.351" fill="#4e9a06"/><path d="M77.903 347.316c0 .359-.291.65-.65.65-.359 0-.65-.291-.65-.65 0-.359.291-.65.65-.65.359 0 .65.291.65.65z" fill="#fff"/></g><g transform="translate(32)"><rect ry="1.175" rx="1.175" y="344.965" x="76.078" height="4.702" width="2.351" fill="#4e9a06"/><path d="M77.903 347.316c0 .359-.291.65-.65.65-.359 0-.65-.291-.65-.65 0-.359.291-.65.65-.65.359 0 .65.291.65.65z" fill="#fff"/></g><g transform="translate(36)"><rect width="2.351" height="4.702" x="76.078" y="344.965" rx="1.175" ry="1.175" fill="#4e9a06"/><path d="M77.903 347.316c0 .359-.291.65-.65.65-.359 0-.65-.291-.65-.65 0-.359.291-.65.65-.65.359 0 .65.291.65.65z" fill="#fff"/></g><g transform="translate(40)"><rect ry="1.175" rx="1.175" y="344.965" x="76.078" height="4.702" width="2.351" fill="#4e9a06"/><path d="M77.903 347.316c0 .359-.291.65-.65.65-.359 0-.65-.291-.65-.65 0-.359.291-.65.65-.65.359 0 .65.291.65.65z" fill="#fff"/></g><g transform="translate(44)"><rect width="2.351" height="4.702" x="76.078" y="344.965" rx="1.175" ry="1.175" fill="#4e9a06"/><path d="M77.903 347.316c0 .359-.291.65-.65.65-.359 0-.65-.291-.65-.65 0-.359.291-.65.65-.65.359 0 .65.291.65.65z" fill="#fff"/></g><path d="M77.254 347.316v8.119" stroke="#000" stroke-width=".25" stroke-dasharray="0.25, 0.75000001" fill="none"/><text y="358.672" x="73.969" style="text-align:start;line-height:125%;-inkscape-font-specification:Sans" font-size="4" letter-spacing="0" word-spacing="0" font-family="Sans"><tspan y="358.672" x="73.969">1300</tspan></text><path d="M105.254 347.316v8.119" stroke="#000" stroke-width=".25" stroke-dasharray="0.25, 0.75000001" fill="none"/><path d="M97.254 347.316v8.119" stroke="#000" stroke-width=".25" stroke-dasharray="0.25, 0.75000001" fill="none"/><path d="M48.85 271.316h149.66" stroke="#000" stroke-width=".25" stroke-dasharray="0.25, 0.75" fill="none"/><g transform="translate(28 -76)"><rect ry="1.175" rx="1.175" y="344.965" x="76.078" height="4.702" width="2.351" fill="#4e9a06"/><path d="M77.903 347.316c0 .359-.291.65-.65.65-.359 0-.65-.291-.65-.65 0-.359.291-.65.65-.65.359 0 .65.291.65.65z" fill="#fff"/></g><g transform="translate(32 -76)"><rect width="2.351" height="4.702" x="76.078" y="344.965" rx="1.175" ry="1.175" fill="#4e9a06"/><path d="M77.903 347.316c0 .359-.291.65-.65.65-.359 0-.65-.291-.65-.65 0-.359.291-.65.65-.65.359 0 .65.291.65.65z" fill="#fff"/></g><g transform="translate(36 -76)"><rect ry="1.175" rx="1.175" y="344.965" x="76.078" height="4.702" width="2.351" fill="#4e9a06"/><path d="M77.903 347.316c0 .359-.291.65-.65.65-.359 0-.65-.291-.65-.65 0-.359.291-.65.65-.65.359 0 .65.291.65.65z" fill="#fff"/></g><g transform="translate(40 -76)"><rect width="2.351" height="4.702" x="76.078" y="344.965" rx="1.175" ry="1.175" fill="#4e9a06"/><path d="M77.903 347.316c0 .359-.291.65-.65.65-.359 0-.65-.291-.65-.65 0-.359.291-.65.65-.65.359 0 .65.291.65.65z" fill="#fff"/></g><g transform="translate(44 -76)"><rect ry="1.175" rx="1.175" y="344.965" x="76.078" height="4.702" width="2.351" fill="#4e9a06"/><path d="M77.903 347.316c0 .359-.291.65-.65.65-.359 0-.65-.291-.65-.65 0-.359.291-.65.65-.65.359 0 .65.291.65.65z" fill="#fff"/></g><g transform="translate(24 -76)"><rect ry="1.175" rx="1.175" y="344.965" x="76.078" height="4.702" width="2.351" fill="#4e9a06"/><path d="M77.903 347.316c0 .359-.291.65-.65.65-.359 0-.65-.291-.65-.65 0-.359.291-.65.65-.65.359 0 .65.291.65.65z" fill="#fff"/></g><g transform="translate(-6.4 -76)"><rect width="2.351" height="4.702" x="76.078" y="344.965" rx="1.175" ry="1.175" fill="#4e9a06"/><path d="M77.903 347.316c0 .359-.291.65-.65.65-.359 0-.65-.291-.65-.65 0-.359.291-.65.65-.65.359 0 .65.291.65.65z" fill="#fff"/></g><g transform="translate(-2.4 -76)"><rect ry="1.175" rx="1.175" y="344.965" x="76.078" height="4.702" width="2.351" fill="#4e9a06"/><path d="M77.903 347.316c0 .359-.291.65-.65.65-.359 0-.65-.291-.65-.65 0-.359.291-.65.65-.65.359 0 .65.291.65.65z" fill="#fff"/></g><g transform="translate(1.6 -76)"><rect width="2.351" height="4.702" x="76.078" y="344.965" rx="1.175" ry="1.175" fill="#4e9a06"/><path d="M77.903 347.316c0 .359-.291.65-.65.65-.359 0-.65-.291-.65-.65 0-.359.291-.65.65-.65.359 0 .65.291.65.65z" fill="#fff"/></g><g transform="translate(5.6 -76)"><rect ry="1.175" rx="1.175" y="344.965" x="76.078" height="4.702" width="2.351" fill="#4e9a06"/><path d="M77.903 347.316c0 .359-.291.65-.65.65-.359 0-.65-.291-.65-.65 0-.359.291-.65.65-.65.359 0 .65.291.65.65z" fill="#fff"/></g><g transform="translate(9.6 -76)"><rect width="2.351" height="4.702" x="76.078" y="344.965" rx="1.175" ry="1.175" fill="#4e9a06"/><path d="M77.903 347.316c0 .359-.291.65-.65.65-.359 0-.65-.291-.65-.65 0-.359.291-.65.65-.65.359 0 .65.291.65.65z" fill="#fff"/></g><g transform="translate(-10.4 -76)"><rect width="2.351" height="4.702" x="76.078" y="344.965" rx="1.175" ry="1.175" fill="#4e9a06"/><path d="M77.903 347.316c0 .359-.291.65-.65.65-.359 0-.65-.291-.65-.65 0-.359.291-.65.65-.65.359 0 .65.291.65.65z" fill="#fff"/></g><path d="M51.75 271.316c0 1.379-1.118 2.496-2.496 2.496-1.379 0-2.496-1.118-2.496-2.496 0-1.379 1.118-2.496 2.496-2.496 1.379 0 2.496 1.118 2.496 2.496z" fill="#fff" stroke="#000" stroke-width=".25" stroke-linecap="round" stroke-linejoin="round"/><text y="263.166" x="63.579" style="text-align:start;line-height:125%;-inkscape-font-specification:Sans" font-size="4" letter-spacing="0" word-spacing="0" font-family="Sans"><tspan y="263.166" x="63.579">940</tspan></text><path d="M97.254 271.316v-8.119" stroke="#000" stroke-width=".25" stroke-dasharray="0.25, 0.75" fill="none"/><path d="M185.254 345.316h13.4" stroke="#000" stroke-width=".25" stroke-dasharray="0.25, 0.75" fill="none"/><path d="M181.254 349.316h17.4" stroke="#000" stroke-width=".25" stroke-dasharray="0.25, 0.75" fill="none"/><path d="M181.254 287.316h17.4" stroke="#000" stroke-width=".25" stroke-dasharray="0.25, 0.75" fill="none"/><g><g><path d="M126.52 303.919l-.67.671h-.948l-.671-.67v-.948l.67-.671h.948l.671.67z" fill="#4e9a06"/><path d="M126.111 303.347c0 .359-.291.65-.65.65-.359 0-.65-.291-.65-.65 0-.359.291-.65.65-.65.359 0 .65.291.65.65z" fill="#fff"/></g><g><path d="M130.52 303.919l-.67.671h-.948l-.671-.67v-.948l.67-.671h.948l.671.67z" fill="#4e9a06"/><path d="M130.111 303.347c0 .359-.291.65-.65.65-.359 0-.65-.291-.65-.65 0-.359.291-.65.65-.65.359 0 .65.291.65.65z" fill="#fff"/></g><g><path d="M126.52 307.919l-.67.671h-.948l-.671-.67v-.948l.67-.671h.948l.671.67z" fill="#4e9a06"/><path d="M126.111 307.347c0 .359-.291.65-.65.65-.359 0-.65-.291-.65-.65 0-.359.291-.65.65-.65.359 0 .65.291.65.65z" fill="#fff"/></g><g><path d="M130.52 307.919l-.67.671h-.948l-.671-.67v-.948l.67-.671h.948l.671.67z" fill="#4e9a06"/><path d="M130.111 307.347c0 .359-.291.65-.65.65-.359 0-.65-.291-.65-.65 0-.359.291-.65.65-.65.359 0 .65.291.65.65z" fill="#fff"/></g><g><path d="M126.52 311.919l-.67.671h-.948l-.671-.67v-.948l.67-.671h.948l.671.67z" fill="#4e9a06"/><path d="M126.111 311.347c0 .359-.291.65-.65.65-.359 0-.65-.291-.65-.65 0-.359.291-.65.65-.65.359 0 .65.291.65.65z" fill="#fff"/></g><g><path d="M130.52 311.919l-.67.671h-.948l-.671-.67v-.948l.67-.671h.948l.671.67z" fill="#4e9a06"/><path d="M130.111 311.347c0 .359-.291.65-.65.65-.359 0-.65-.291-.65-.65 0-.359.291-.65.65-.65.359 0 .65.291.65.65z" fill="#fff"/></g></g><rect width="7.974" height="12.297" x="123.472" y="301.066" rx=".924" ry=".924" stroke="#000" stroke-width=".5" stroke-linecap="round" stroke-linejoin="round" fill="none"/><text style="text-align:start;line-height:125%;-inkscape-font-specification:Sans" x="115.819" y="298.743" font-size="2" letter-spacing="0" word-spacing="0" font-family="Sans"><tspan x="115.819" y="298.743">(2505,</tspan><tspan x="115.819" y="301.243">1200)</tspan></text><text style="text-align:start;line-height:125%;-inkscape-font-specification:Sans" x="132.169" y="305.859" font-size="4" letter-spacing="0" word-spacing="0" font-family="Sans"><tspan x="132.169" y="305.859">ICSP</tspan><tspan x="132.169" y="310.859">header</tspan></text><path d="M121.9 299.719l2.515 2.515" stroke="#000" stroke-width=".25" stroke-linecap="round" stroke-linejoin="round" fill="none"/><text style="text-align:start;line-height:125%;-inkscape-font-specification:Sans" x="26.026" y="305.017" font-size="4" letter-spacing="0" word-spacing="0" font-family="Sans"><tspan x="26.026" y="305.017">All dimensions in mils (0.001&quot;)</tspan><tspan x="26.026" y="310.017">PCB outside dimensions: 4000 x 2100</tspan><tspan x="26.026" y="315.017">Mounting holes: ⌀=125</tspan><tspan x="26.026" y="320.017" font-size="2"/><tspan x="26.026" y="325.017" font-size="2"><tspan font-size="4">Drawn by Matthew Beckler</tspan>(matthew at mbeckler dot org)</tspan><tspan x="26.026" y="330.017">Bugs/updates/comments welcome!</tspan></text><text style="text-align:start;line-height:125%;-inkscape-font-specification:Sans" x="45.68" y="286.861" font-size="8" letter-spacing="0" word-spacing="0" font-family="Sans"><tspan x="45.68" y="286.861">Arduino Mega 2560 R3</tspan></text><text y="290.015" x="45.68" style="text-align:start;line-height:125%;-inkscape-font-specification:Sans" font-size="8" letter-spacing="0" word-spacing="0" font-family="Sans"><tspan y="290.015" x="45.68" font-size="2">Drawn from the offical PCB layout from:</tspan><tspan y="292.515" x="45.68" font-size="2">http://arduino.cc/en/uploads/Main/arduino-mega2560_R3-reference-design.zip</tspan></text><text style="text-align:start;line-height:125%;-inkscape-font-specification:Sans" x="45.688" y="335.709" font-size="8" letter-spacing="0" word-spacing="0" font-family="Sans"><tspan x="45.688" y="335.709" font-size="2">1 px = 25 mils - Drawing v1.03</tspan></text><path d="M49.75 347.316c0 1.379-1.118 2.496-2.496 2.496-1.379 0-2.496-1.118-2.496-2.496 0-1.379 1.118-2.496 2.496-2.496 1.379 0 2.496 1.118 2.496 2.496z" fill="#fff" stroke="#000" stroke-width=".25" stroke-linecap="round" stroke-linejoin="round"/><text style="text-align:start;line-height:125%;-inkscape-font-specification:Sans" x="89.427" y="358.672" font-size="4" letter-spacing="0" word-spacing="0" font-family="Sans"><tspan x="89.427" y="358.672">1800</tspan></text><text y="358.672" x="103.192" style="text-align:start;line-height:125%;-inkscape-font-specification:Sans" font-size="4" letter-spacing="0" word-spacing="0" font-family="Sans"><tspan y="358.672" x="103.192">2000</tspan></text><text style="text-align:start;line-height:125%;-inkscape-font-specification:Sans" x="80.2" y="263.166" font-size="4" letter-spacing="0" word-spacing="0" font-family="Sans"><tspan x="80.2" y="263.166">1640</tspan></text><text y="263.166" x="97.795" style="text-align:start;line-height:125%;-inkscape-font-specification:Sans" font-size="4" letter-spacing="0" word-spacing="0" font-family="Sans"><tspan y="263.166" x="97.795">1800</tspan></text><text style="text-align:start;line-height:125%;-inkscape-font-specification:Sans" x="48.147" y="344.553" font-size="2" letter-spacing="0" word-spacing="0" font-family="Sans"><tspan x="48.147" y="344.553">(550, 100)</tspan></text><text y="350.432" x="25.643" style="text-align:start;line-height:125%;-inkscape-font-specification:Sans" font-size="8" letter-spacing="0" word-spacing="0" font-family="Sans"><tspan y="350.432" x="25.643" font-size="2">(0,0) Origin</tspan></text><path d="M133.254 347.316v8.119" stroke="#000" stroke-width=".25" stroke-dasharray="0.25, 0.75000001" fill="none"/><text style="text-align:start;line-height:125%;-inkscape-font-specification:Sans" x="124.524" y="358.672" font-size="4" letter-spacing="0" word-spacing="0" font-family="Sans"><tspan x="124.524" y="358.672">2700</tspan></text><text style="text-align:start;line-height:125%;-inkscape-font-specification:Sans" x="115.596" y="263.166" font-size="4" letter-spacing="0" word-spacing="0" font-family="Sans"><tspan x="115.596" y="263.166">2500</tspan></text><path d="M125.254 271.316v-8.119" stroke="#000" stroke-width=".25" stroke-dasharray="0.25, 0.75" fill="none"/><text style="text-align:start;line-height:125%;-inkscape-font-specification:Sans" x="32.847" y="263.166" font-size="4" letter-spacing="0" word-spacing="0" font-family="Sans"><tspan x="32.847" y="263.166">375</tspan></text><text y="358.429" x="43.254" style="text-align:start;line-height:125%;-inkscape-font-specification:Sans" font-size="4" letter-spacing="0" word-spacing="0" font-family="Sans"><tspan y="358.429" x="43.254">450</tspan></text><path d="M43.254 351.316v3.463" stroke="#000" stroke-width=".25" stroke-dasharray="0.25, 0.75" fill="none"/><path d="M40.254 263.197v19.2" stroke="#000" stroke-width=".25" stroke-dasharray="0.25, 0.75" fill="none"/><path d="M43.254 345.316v6" stroke="#000" stroke-width=".25" stroke-dasharray="0.25, 0.75" fill="none"/><path d="M22.254 351.316v3.463" stroke="#000" stroke-width=".25" stroke-dasharray="0.25, 0.75" fill="none"/><text y="358.403" x="18.018" style="text-align:start;line-height:125%;-inkscape-font-specification:Sans" font-size="4" letter-spacing="0" word-spacing="0" font-family="Sans"><tspan y="358.403" x="18.018">-75</tspan></text><text style="text-align:start;line-height:125%;-inkscape-font-specification:Sans" x="6.049" y="263.166" font-size="4" letter-spacing="0" word-spacing="0" font-family="Sans"><tspan x="6.049" y="263.166">-250</tspan></text><path d="M15.254 263.197v19.585" stroke="#000" stroke-width=".25" stroke-dasharray="0.25, 0.75" fill="none"/><text y="268.693" x="-3.75" style="text-align:start;line-height:125%;-inkscape-font-specification:Sans" font-size="4" letter-spacing="0" word-spacing="0" font-family="Sans"><tspan y="268.693" x="-3.75">2100</tspan></text><path d="M26.026 351.316c0 .426-.346.772-.772.772-.426 0-.772-.346-.772-.772 0-.426.346-.772.772-.772.426 0 .772.346.772.772z"/><path d="M7.711 282.316h7.543" stroke="#000" stroke-width=".25" stroke-dasharray="0.25, 0.75" fill="none"/><path d="M7.711 300.316h7.543" stroke="#000" stroke-width=".25" stroke-dasharray="0.25, 0.75" fill="none"/><path d="M7.711 332.316h14.543" stroke="#000" stroke-width=".25" stroke-dasharray="0.25, 0.75" fill="none"/><path d="M7.711 346.316h14.543" stroke="#000" stroke-width=".25" stroke-dasharray="0.25, 0.75" fill="none"/><text style="text-align:start;line-height:125%;-inkscape-font-specification:Sans" x="-1.119" y="350.377" font-size="4" letter-spacing="0" word-spacing="0" font-family="Sans"><tspan x="-1.119" y="350.377">100</tspan></text><text style="text-align:start;line-height:125%;-inkscape-font-specification:Sans" x="-3.75" y="301.772" font-size="4" letter-spacing="0" word-spacing="0" font-family="Sans"><tspan x="-3.75" y="301.772">1275</tspan></text><text y="283.772" x="-3.75" style="text-align:start;line-height:125%;-inkscape-font-specification:Sans" font-size="4" letter-spacing="0" word-spacing="0" font-family="Sans"><tspan y="283.772" x="-3.75">1725</tspan></text><path d="M25.254 361.654v-10.338" stroke="#000" stroke-width=".25" stroke-dasharray="0.25, 0.75" fill="none"/><path d="M-6.073 351.316h31.327" stroke="#000" stroke-width=".25" stroke-dasharray="0.25, 0.75" fill="none"/><path d="M62.854 271.316v-8.119" stroke="#000" stroke-width=".25" stroke-dasharray="0.25, 0.75" fill="none"/><g transform="translate(-14.4 -76)"><rect ry="1.175" rx="1.175" y="344.965" x="76.078" height="4.702" width="2.351" fill="#4e9a06"/><path d="M77.903 347.316c0 .359-.291.65-.65.65-.359 0-.65-.291-.65-.65 0-.359.291-.65.65-.65.359 0 .65.291.65.65z" fill="#fff"/></g><path d="M90.854 271.316v-8.119" stroke="#000" stroke-width=".25" stroke-dasharray="0.25, 0.75" fill="none"/><g transform="translate(20 -76)"><rect width="2.351" height="4.702" x="76.078" y="344.965" rx="1.175" ry="1.175" fill="#4e9a06"/><path d="M77.903 347.316c0 .359-.291.65-.65.65-.359 0-.65-.291-.65-.65 0-.359.291-.65.65-.65.359 0 .65.291.65.65z" fill="#fff"/></g><g transform="translate(13.6 -76)"><rect ry="1.175" rx="1.175" y="344.965" x="76.078" height="4.702" width="2.351" fill="#4e9a06"/><path d="M77.903 347.316c0 .359-.291.65-.65.65-.359 0-.65-.291-.65-.65 0-.359.291-.65.65-.65.359 0 .65.291.65.65z" fill="#fff"/></g><g transform="translate(48 -76)"><rect width="2.351" height="4.702" x="76.078" y="344.965" rx="1.175" ry="1.175" fill="#4e9a06"/><path d="M77.903 347.316c0 .359-.291.65-.65.65-.359 0-.65-.291-.65-.65 0-.359.291-.65.65-.65.359 0 .65.291.65.65z" fill="#fff"/></g><text y="272.772" x="199.143" style="text-align:start;line-height:125%;-inkscape-font-specification:Sans" font-size="4" letter-spacing="0" word-spacing="0" font-family="Sans"><tspan y="272.772" x="199.143">2000</tspan></text><path d="M177.292 267.316h21.362" stroke="#000" stroke-width=".25" stroke-dasharray="0.25, 0.75" fill="none"/><g><rect ry="1.175" rx="1.175" y="344.965" x="76.078" height="4.702" width="2.351" fill="#4e9a06"/><path transform="matrix(.54 0 0 .54 35.544 159.796)" d="M78.457 347.316a1.203 1.203 0 1 1-2.406 0 1.203 1.203 0 1 1 2.406 0z" fill="#fff"/></g><g transform="translate(20)"><rect width="2.351" height="4.702" x="76.078" y="344.965" rx="1.175" ry="1.175" fill="#4e9a06"/><path d="M77.903 347.316c0 .359-.291.65-.65.65-.359 0-.65-.291-.65-.65 0-.359.291-.65.65-.65.359 0 .65.291.65.65z" fill="#fff"/></g><g transform="translate(28)"><rect width="2.351" height="4.702" x="76.078" y="344.965" rx="1.175" ry="1.175" fill="#4e9a06"/><path d="M77.903 347.316c0 .359-.291.65-.65.65-.359 0-.65-.291-.65-.65 0-.359.291-.65.65-.65.359 0 .65.291.65.65z" fill="#fff"/></g><g transform="translate(48)"><rect ry="1.175" rx="1.175" y="344.965" x="76.078" height="4.702" width="2.351" fill="#4e9a06"/><path d="M77.903 347.316c0 .359-.291.65-.65.65-.359 0-.65-.291-.65-.65 0-.359.291-.65.65-.65.359 0 .65.291.65.65z" fill="#fff"/></g><g transform="translate(64 -76)"><rect width="2.351" height="4.702" x="76.078" y="344.965" rx="1.175" ry="1.175" fill="#4e9a06"/><path d="M77.903 347.316c0 .359-.291.65-.65.65-.359 0-.65-.291-.65-.65 0-.359.291-.65.65-.65.359 0 .65.291.65.65z" fill="#fff"/></g><g transform="translate(68 -76)"><rect ry="1.175" rx="1.175" y="344.965" x="76.078" height="4.702" width="2.351" fill="#4e9a06"/><path d="M77.903 347.316c0 .359-.291.65-.65.65-.359 0-.65-.291-.65-.65 0-.359.291-.65.65-.65.359 0 .65.291.65.65z" fill="#fff"/></g><g transform="translate(72 -76)"><rect width="2.351" height="4.702" x="76.078" y="344.965" rx="1.175" ry="1.175" fill="#4e9a06"/><path d="M77.903 347.316c0 .359-.291.65-.65.65-.359 0-.65-.291-.65-.65 0-.359.291-.65.65-.65.359 0 .65.291.65.65z" fill="#fff"/></g><g transform="translate(76 -76)"><rect ry="1.175" rx="1.175" y="344.965" x="76.078" height="4.702" width="2.351" fill="#4e9a06"/><path d="M77.903 347.316c0 .359-.291.65-.65.65-.359 0-.65-.291-.65-.65 0-.359.291-.65.65-.65.359 0 .65.291.65.65z" fill="#fff"/></g><g transform="translate(80 -76)"><rect width="2.351" height="4.702" x="76.078" y="344.965" rx="1.175" ry="1.175" fill="#4e9a06"/><path d="M77.903 347.316c0 .359-.291.65-.65.65-.359 0-.65-.291-.65-.65 0-.359.291-.65.65-.65.359 0 .65.291.65.65z" fill="#fff"/></g><g transform="translate(60 -76)"><rect width="2.351" height="4.702" x="76.078" y="344.965" rx="1.175" ry="1.175" fill="#4e9a06"/><path d="M77.903 347.316c0 .359-.291.65-.65.65-.359 0-.65-.291-.65-.65 0-.359.291-.65.65-.65.359 0 .65.291.65.65z" fill="#fff"/></g><path d="M133.254 271.316v-8.119" stroke="#000" stroke-width=".25" stroke-dasharray="0.25, 0.75" fill="none"/><text style="text-align:start;line-height:125%;-inkscape-font-specification:Sans" x="133.795" y="263.166" font-size="4" letter-spacing="0" word-spacing="0" font-family="Sans"><tspan x="133.795" y="263.166">2700</tspan></text><text y="263.166" x="151.596" style="text-align:start;line-height:125%;-inkscape-font-specification:Sans" font-size="4" letter-spacing="0" word-spacing="0" font-family="Sans"><tspan y="263.166" x="151.596">3400</tspan></text><path d="M161.254 271.316v-8.119" stroke="#000" stroke-width=".25" stroke-dasharray="0.25, 0.75" fill="none"/><g transform="translate(56 -76)"><rect ry="1.175" rx="1.175" y="344.965" x="76.078" height="4.702" width="2.351" fill="#4e9a06"/><path d="M77.903 347.316c0 .359-.291.65-.65.65-.359 0-.65-.291-.65-.65 0-.359.291-.65.65-.65.359 0 .65.291.65.65z" fill="#fff"/></g><g transform="translate(84 -76)"><rect ry="1.175" rx="1.175" y="344.965" x="76.078" height="4.702" width="2.351" fill="#4e9a06"/><path d="M77.903 347.316c0 .359-.291.65-.65.65-.359 0-.65-.291-.65-.65 0-.359.291-.65.65-.65.359 0 .65.291.65.65z" fill="#fff"/></g><path d="M169.75 271.316c0 1.379-1.118 2.496-2.496 2.496-1.379 0-2.496-1.118-2.496-2.496 0-1.379 1.118-2.496 2.496-2.496 1.379 0 2.496 1.118 2.496 2.496z" fill="#fff" stroke="#000" stroke-width=".25" stroke-linecap="round" stroke-linejoin="round"/><text y="275.689" x="163.143" style="text-align:start;line-height:125%;-inkscape-font-specification:Sans" font-size="2" letter-spacing="0" word-spacing="0" font-family="Sans"><tspan y="275.689" x="163.143">(3550,</tspan><tspan y="278.189" x="163.143">2000)</tspan></text><path d="M179.75 347.316c0 1.379-1.118 2.496-2.496 2.496-1.379 0-2.496-1.118-2.496-2.496 0-1.379 1.118-2.496 2.496-2.496 1.379 0 2.496 1.118 2.496 2.496z" fill="#fff" stroke="#000" stroke-width=".25" stroke-linecap="round" stroke-linejoin="round"/><text style="text-align:start;line-height:125%;-inkscape-font-specification:Sans" x="177.667" y="343.978" font-size="2" letter-spacing="0" word-spacing="0" font-family="Sans"><tspan x="177.667" y="343.978">(3800,</tspan><tspan x="177.667" y="346.478" dy="0 0 0 -0.34260178">100)</tspan></text><g><path d="M174.359 335.913l-.67.671h-.948l-.671-.67v-.948l.67-.671h.948l.671.67z" fill="#4e9a06"/><path d="M173.949 335.341c0 .359-.291.65-.65.65-.359 0-.65-.291-.65-.65 0-.359.291-.65.65-.65.359 0 .65.291.65.65z" fill="#fff"/></g><g><path d="M178.359 335.913l-.67.671h-.948l-.671-.67v-.948l.67-.671h.948l.671.67z" fill="#4e9a06"/><path d="M177.949 335.341c0 .359-.291.65-.65.65-.359 0-.65-.291-.65-.65 0-.359.291-.65.65-.65.359 0 .65.291.65.65z" fill="#fff"/></g><g><path d="M174.359 331.913l-.67.671h-.948l-.671-.67v-.948l.67-.671h.948l.671.67z" fill="#4e9a06"/><path d="M173.949 331.341c0 .359-.291.65-.65.65-.359 0-.65-.291-.65-.65 0-.359.291-.65.65-.65.359 0 .65.291.65.65z" fill="#fff"/></g><g><path d="M178.359 331.913l-.67.671h-.948l-.671-.67v-.948l.67-.671h.948l.671.67z" fill="#4e9a06"/><path d="M177.949 331.341c0 .359-.291.65-.65.65-.359 0-.65-.291-.65-.65 0-.359.291-.65.65-.65.359 0 .65.291.65.65z" fill="#fff"/></g><g><path d="M174.359 327.913l-.67.671h-.948l-.671-.67v-.948l.67-.671h.948l.671.67z" fill="#4e9a06"/><path d="M173.949 327.341c0 .359-.291.65-.65.65-.359 0-.65-.291-.65-.65 0-.359.291-.65.65-.65.359 0 .65.291.65.65z" fill="#fff"/></g><g><path d="M178.359 327.913l-.67.671h-.948l-.671-.67v-.948l.67-.671h.948l.671.67z" fill="#4e9a06"/><path d="M177.949 327.341c0 .359-.291.65-.65.65-.359 0-.65-.291-.65-.65 0-.359.291-.65.65-.65.359 0 .65.291.65.65z" fill="#fff"/></g><g><path d="M174.359 323.913l-.67.671h-.948l-.671-.67v-.948l.67-.671h.948l.671.67z" fill="#4e9a06"/><path d="M173.949 323.341c0 .359-.291.65-.65.65-.359 0-.65-.291-.65-.65 0-.359.291-.65.65-.65.359 0 .65.291.65.65z" fill="#fff"/></g><g><path d="M178.359 323.913l-.67.671h-.948l-.671-.67v-.948l.67-.671h.948l.671.67z" fill="#4e9a06"/><path d="M177.949 323.341c0 .359-.291.65-.65.65-.359 0-.65-.291-.65-.65 0-.359.291-.65.65-.65.359 0 .65.291.65.65z" fill="#fff"/></g><g><path d="M174.359 319.913l-.67.671h-.948l-.671-.67v-.948l.67-.671h.948l.671.67z" fill="#4e9a06"/><path d="M173.949 319.341c0 .359-.291.65-.65.65-.359 0-.65-.291-.65-.65 0-.359.291-.65.65-.65.359 0 .65.291.65.65z" fill="#fff"/></g><g><path d="M178.359 319.913l-.67.671h-.948l-.671-.67v-.948l.67-.671h.948l.671.67z" fill="#4e9a06"/><path d="M177.949 319.341c0 .359-.291.65-.65.65-.359 0-.65-.291-.65-.65 0-.359.291-.65.65-.65.359 0 .65.291.65.65z" fill="#fff"/></g><g><path d="M174.359 315.913l-.67.671h-.948l-.671-.67v-.948l.67-.671h.948l.671.67z" fill="#4e9a06"/><path d="M173.949 315.341c0 .359-.291.65-.65.65-.359 0-.65-.291-.65-.65 0-.359.291-.65.65-.65.359 0 .65.291.65.65z" fill="#fff"/></g><g><path d="M178.359 315.913l-.67.671h-.948l-.671-.67v-.948l.67-.671h.948l.671.67z" fill="#4e9a06"/><path d="M177.949 315.341c0 .359-.291.65-.65.65-.359 0-.65-.291-.65-.65 0-.359.291-.65.65-.65.359 0 .65.291.65.65z" fill="#fff"/></g><g><path d="M174.359 311.913l-.67.671h-.948l-.671-.67v-.948l.67-.671h.948l.671.67z" fill="#4e9a06"/><path d="M173.949 311.341c0 .359-.291.65-.65.65-.359 0-.65-.291-.65-.65 0-.359.291-.65.65-.65.359 0 .65.291.65.65z" fill="#fff"/></g><g><path d="M178.359 311.913l-.67.671h-.948l-.671-.67v-.948l.67-.671h.948l.671.67z" fill="#4e9a06"/><path d="M177.949 311.341c0 .359-.291.65-.65.65-.359 0-.65-.291-.65-.65 0-.359.291-.65.65-.65.359 0 .65.291.65.65z" fill="#fff"/></g><g><path d="M174.359 307.913l-.67.671h-.948l-.671-.67v-.948l.67-.671h.948l.671.67z" fill="#4e9a06"/><path d="M173.949 307.341c0 .359-.291.65-.65.65-.359 0-.65-.291-.65-.65 0-.359.291-.65.65-.65.359 0 .65.291.65.65z" fill="#fff"/></g><g><path d="M178.359 307.913l-.67.671h-.948l-.671-.67v-.948l.67-.671h.948l.671.67z" fill="#4e9a06"/><path d="M177.949 307.341c0 .359-.291.65-.65.65-.359 0-.65-.291-.65-.65 0-.359.291-.65.65-.65.359 0 .65.291.65.65z" fill="#fff"/></g><g><path d="M174.359 303.913l-.67.671h-.948l-.671-.67v-.948l.67-.671h.948l.671.67z" fill="#4e9a06"/><path d="M173.949 303.341c0 .359-.291.65-.65.65-.359 0-.65-.291-.65-.65 0-.359.291-.65.65-.65.359 0 .65.291.65.65z" fill="#fff"/></g><g><path d="M178.359 303.913l-.67.671h-.948l-.671-.67v-.948l.67-.671h.948l.671.67z" fill="#4e9a06"/><path d="M177.949 303.341c0 .359-.291.65-.65.65-.359 0-.65-.291-.65-.65 0-.359.291-.65.65-.65.359 0 .65.291.65.65z" fill="#fff"/></g><g><path d="M174.359 299.913l-.67.671h-.948l-.671-.67v-.948l.67-.671h.948l.671.67z" fill="#4e9a06"/><path d="M173.949 299.341c0 .359-.291.65-.65.65-.359 0-.65-.291-.65-.65 0-.359.291-.65.65-.65.359 0 .65.291.65.65z" fill="#fff"/></g><g><path d="M178.359 299.913l-.67.671h-.948l-.671-.67v-.948l.67-.671h.948l.671.67z" fill="#4e9a06"/><path d="M177.949 299.341c0 .359-.291.65-.65.65-.359 0-.65-.291-.65-.65 0-.359.291-.65.65-.65.359 0 .65.291.65.65z" fill="#fff"/></g><g><path d="M174.359 295.913l-.67.671h-.948l-.671-.67v-.948l.67-.671h.948l.671.67z" fill="#4e9a06"/><path d="M173.949 295.341c0 .359-.291.65-.65.65-.359 0-.65-.291-.65-.65 0-.359.291-.65.65-.65.359 0 .65.291.65.65z" fill="#fff"/></g><g><path d="M178.359 295.913l-.67.671h-.948l-.671-.67v-.948l.67-.671h.948l.671.67z" fill="#4e9a06"/><path d="M177.949 295.341c0 .359-.291.65-.65.65-.359 0-.65-.291-.65-.65 0-.359.291-.65.65-.65.359 0 .65.291.65.65z" fill="#fff"/></g><g><path d="M174.359 291.913l-.67.671h-.948l-.671-.67v-.948l.67-.671h.948l.671.67z" fill="#4e9a06"/><path d="M173.949 291.341c0 .359-.291.65-.65.65-.359 0-.65-.291-.65-.65 0-.359.291-.65.65-.65.359 0 .65.291.65.65z" fill="#fff"/></g><g><path d="M178.359 291.913l-.67.671h-.948l-.671-.67v-.948l.67-.671h.948l.671.67z" fill="#4e9a06"/><path d="M177.949 291.341c0 .359-.291.65-.65.65-.359 0-.65-.291-.65-.65 0-.359.291-.65.65-.65.359 0 .65.291.65.65z" fill="#fff"/></g><g><path d="M174.359 287.913l-.67.671h-.948l-.671-.67v-.948l.67-.671h.948l.671.67z" fill="#4e9a06"/><path d="M173.949 287.341c0 .359-.291.65-.65.65-.359 0-.65-.291-.65-.65 0-.359.291-.65.65-.65.359 0 .65.291.65.65z" fill="#fff"/></g><g><path d="M178.359 287.913l-.67.671h-.948l-.671-.67v-.948l.67-.671h.948l.671.67z" fill="#4e9a06"/><path d="M177.949 287.341c0 .359-.291.65-.65.65-.359 0-.65-.291-.65-.65 0-.359.291-.65.65-.65.359 0 .65.291.65.65z" fill="#fff"/></g><g><path d="M174.359 283.913l-.67.671h-.948l-.671-.67v-.948l.67-.671h.948l.671.67z" fill="#4e9a06"/><path d="M173.949 283.341c0 .359-.291.65-.65.65-.359 0-.65-.291-.65-.65 0-.359.291-.65.65-.65.359 0 .65.291.65.65z" fill="#fff"/></g><g><path d="M178.359 283.913l-.67.671h-.948l-.671-.67v-.948l.67-.671h.948l.671.67z" fill="#4e9a06"/><path d="M177.949 283.341c0 .359-.291.65-.65.65-.359 0-.65-.291-.65-.65 0-.359.291-.65.65-.65.359 0 .65.291.65.65z" fill="#fff"/></g><g><path d="M174.359 279.913l-.67.671h-.948l-.671-.67v-.948l.67-.671h.948l.671.67z" fill="#4e9a06"/><path d="M173.949 279.341c0 .359-.291.65-.65.65-.359 0-.65-.291-.65-.65 0-.359.291-.65.65-.65.359 0 .65.291.65.65z" fill="#fff"/></g><g><path d="M178.359 279.913l-.67.671h-.948l-.671-.67v-.948l.67-.671h.948l.671.67z" fill="#4e9a06"/><path d="M177.949 279.341c0 .359-.291.65-.65.65-.359 0-.65-.291-.65-.65 0-.359.291-.65.65-.65.359 0 .65.291.65.65z" fill="#fff"/></g><g><path d="M174.359 275.913l-.67.671h-.948l-.671-.67v-.948l.67-.671h.948l.671.67z" fill="#4e9a06"/><path d="M173.949 275.341c0 .359-.291.65-.65.65-.359 0-.65-.291-.65-.65 0-.359.291-.65.65-.65.359 0 .65.291.65.65z" fill="#fff"/></g><g><path d="M178.359 275.913l-.67.671h-.948l-.671-.67v-.948l.67-.671h.948l.671.67z" fill="#4e9a06"/><path d="M177.949 275.341c0 .359-.291.65-.65.65-.359 0-.65-.291-.65-.65 0-.359.291-.65.65-.65.359 0 .65.291.65.65z" fill="#fff"/></g><path d="M167.617 339.31h9.786" stroke="#000" stroke-width=".25" stroke-dasharray="0.25, 0.75" fill="none"/><text y="340.104" x="163.51" style="text-align:start;line-height:125%;-inkscape-font-specification:Sans" font-size="2" letter-spacing="0" word-spacing="0" font-family="Sans"><tspan y="340.104" x="163.51">300</tspan></text><g><g><path d="M174.359 339.913l-.67.671h-.948l-.671-.67v-.948l.67-.671h.948l.671.67z" fill="#4e9a06"/><path d="M173.949 339.341c0 .359-.291.65-.65.65-.359 0-.65-.291-.65-.65 0-.359.291-.65.65-.65.359 0 .65.291.65.65z" fill="#fff"/></g><g><path d="M178.358 339.913l-.67.671h-.948l-.671-.67v-.948l.67-.671h.948l.671.67z" fill="#4e9a06"/><path d="M177.949 339.341c0 .359-.291.65-.65.65-.359 0-.65-.291-.65-.65 0-.359.291-.65.65-.65.359 0 .65.291.65.65z" fill="#fff"/></g><g><path d="M178.358 271.913l-.67.671h-.948l-.671-.67v-.948l.67-.671h.948l.671.67z" fill="#4e9a06"/><path d="M177.949 271.341c0 .359-.291.65-.65.65-.359 0-.65-.291-.65-.65 0-.359.291-.65.65-.65.359 0 .65.291.65.65z" fill="#fff"/></g><g><path d="M174.358 271.913l-.67.671h-.948l-.671-.67v-.948l.67-.671h.948l.671.67z" fill="#4e9a06"/><path d="M173.949 271.341c0 .359-.291.65-.65.65-.359 0-.65-.291-.65-.65 0-.359.291-.65.65-.65.359 0 .65.291.65.65z" fill="#fff"/></g></g><path d="M177.292 263.976v3.334" stroke="#000" stroke-width=".25" stroke-dasharray="0.25, 0.75" fill="none"/><rect ry=".924" rx=".924" y="269.423" x="171.305" height="71.773" width="7.974" stroke="#000" stroke-width=".5" stroke-linecap="round" stroke-linejoin="round" fill="none"/><g transform="translate(52)"><rect ry="1.175" rx="1.175" y="344.965" x="76.078" height="4.702" width="2.351" fill="#4e9a06"/><path d="M77.903 347.316c0 .359-.291.65-.65.65-.359 0-.65-.291-.65-.65 0-.359.291-.65.65-.65.359 0 .65.291.65.65z" fill="#fff"/></g><g transform="translate(56)"><rect width="2.351" height="4.702" x="76.078" y="344.965" rx="1.175" ry="1.175" fill="#4e9a06"/><path d="M77.903 347.316c0 .359-.291.65-.65.65-.359 0-.65-.291-.65-.65 0-.359.291-.65.65-.65.359 0 .65.291.65.65z" fill="#fff"/></g><g transform="translate(68)"><rect width="2.351" height="4.702" x="76.078" y="344.965" rx="1.175" ry="1.175" fill="#4e9a06"/><path d="M77.903 347.316c0 .359-.291.65-.65.65-.359 0-.65-.291-.65-.65 0-.359.291-.65.65-.65.359 0 .65.291.65.65z" fill="#fff"/></g><g transform="translate(72)"><rect ry="1.175" rx="1.175" y="344.965" x="76.078" height="4.702" width="2.351" fill="#4e9a06"/><path d="M77.903 347.316c0 .359-.291.65-.65.65-.359 0-.65-.291-.65-.65 0-.359.291-.65.65-.65.359 0 .65.291.65.65z" fill="#fff"/></g><g transform="translate(76)"><rect width="2.351" height="4.702" x="76.078" y="344.965" rx="1.175" ry="1.175" fill="#4e9a06"/><path d="M77.903 347.316c0 .359-.291.65-.65.65-.359 0-.65-.291-.65-.65 0-.359.291-.65.65-.65.359 0 .65.291.65.65z" fill="#fff"/></g><g transform="translate(80)"><rect ry="1.175" rx="1.175" y="344.965" x="76.078" height="4.702" width="2.351" fill="#4e9a06"/><path d="M77.903 347.316c0 .359-.291.65-.65.65-.359 0-.65-.291-.65-.65 0-.359.291-.65.65-.65.359 0 .65.291.65.65z" fill="#fff"/></g><path d="M141.254 347.316v8.119" stroke="#000" stroke-width=".25" stroke-dasharray="0.25, 0.75000001" fill="none"/><text style="text-align:start;line-height:125%;-inkscape-font-specification:Sans" x="139.192" y="358.672" font-size="4" letter-spacing="0" word-spacing="0" font-family="Sans"><tspan x="139.192" y="358.672">2900</tspan></text><path d="M169.254 347.316v8.119" stroke="#000" stroke-width=".25" stroke-dasharray="0.25, 0.75000001" fill="none"/><text y="358.672" x="159.373" style="text-align:start;line-height:125%;-inkscape-font-specification:Sans" font-size="4" letter-spacing="0" word-spacing="0" font-family="Sans"><tspan y="358.672" x="159.373">3600</tspan></text><g transform="translate(64)"><rect ry="1.175" rx="1.175" y="344.965" x="76.078" height="4.702" width="2.351" fill="#4e9a06"/><path d="M77.903 347.316c0 .359-.291.65-.65.65-.359 0-.65-.291-.65-.65 0-.359.291-.65.65-.65.359 0 .65.291.65.65z" fill="#fff"/></g><g transform="translate(84)"><rect width="2.351" height="4.702" x="76.078" y="344.965" rx="1.175" ry="1.175" fill="#4e9a06"/><path d="M77.903 347.316c0 .359-.291.65-.65.65-.359 0-.65-.291-.65-.65 0-.359.291-.65.65-.65.359 0 .65.291.65.65z" fill="#fff"/></g><g transform="translate(88)"><rect width="2.351" height="4.702" x="76.078" y="344.965" rx="1.175" ry="1.175" fill="#4e9a06"/><path d="M77.903 347.316c0 .359-.291.65-.65.65-.359 0-.65-.291-.65-.65 0-.359.291-.65.65-.65.359 0 .65.291.65.65z" fill="#fff"/></g><g transform="translate(92)"><rect ry="1.175" rx="1.175" y="344.965" x="76.078" height="4.702" width="2.351" fill="#4e9a06"/><path d="M77.903 347.316c0 .359-.291.65-.65.65-.359 0-.65-.291-.65-.65 0-.359.291-.65.65-.65.359 0 .65.291.65.65z" fill="#fff"/></g><path d="M173.254 341.018v14.418" stroke="#000" stroke-width=".25" stroke-dasharray="0.25, 0.75000001" fill="none"/><text style="text-align:start;line-height:125%;-inkscape-font-specification:Sans" x="172.516" y="358.672" font-size="4" letter-spacing="0" word-spacing="0" font-family="Sans"><tspan x="172.516" y="358.672">3700</tspan></text><text style="text-align:start;line-height:125%;-inkscape-font-specification:Sans" x="167.948" y="263.166" font-size="4" letter-spacing="0" word-spacing="0" font-family="Sans"><tspan x="167.948" y="263.166">3800</tspan></text><path d="M185.254 256.951v34.366" stroke="#000" stroke-width=".25" stroke-dasharray="0.25, 0.75" fill="none"/><path d="M181.254 260.161v11.156" stroke="#000" stroke-width=".25" stroke-dasharray="0.25, 0.75" fill="none"/><text y="259.711" x="171.948" style="text-align:start;line-height:125%;-inkscape-font-specification:Sans" font-size="4" letter-spacing="0" word-spacing="0" font-family="Sans"><tspan y="259.711" x="171.948">3900</tspan></text><text style="text-align:start;line-height:125%;-inkscape-font-specification:Sans" x="175.948" y="256.439" font-size="4" letter-spacing="0" word-spacing="0" font-family="Sans"><tspan x="175.948" y="256.439">4000</tspan></text><path d="M185.254 291.316h13.4" stroke="#000" stroke-width=".25" stroke-dasharray="0.25, 0.75" fill="none"/><g transform="translate(-18.4 -76)"><rect width="2.351" height="4.702" x="76.078" y="344.965" rx="1.175" ry="1.175" fill="#4e9a06"/><path d="M77.903 347.316c0 .359-.291.65-.65.65-.359 0-.65-.291-.65-.65 0-.359.291-.65.65-.65.359 0 .65.291.65.65z" fill="#fff"/></g><g transform="translate(-22.4 -76)"><rect ry="1.175" rx="1.175" y="344.965" x="76.078" height="4.702" width="2.351" fill="#4e9a06"/><path d="M77.903 347.316c0 .359-.291.65-.65.65-.359 0-.65-.291-.65-.65 0-.359.291-.65.65-.65.359 0 .65.291.65.65z" fill="#fff"/></g><text style="text-align:start;line-height:125%;-inkscape-font-specification:Sans" x="47.036" y="263.166" font-size="4" letter-spacing="0" word-spacing="0" font-family="Sans"><tspan x="47.036" y="263.166">740</tspan></text><g transform="translate(-4)"><rect ry="1.175" rx="1.175" y="344.965" x="76.078" height="4.702" width="2.351" fill="#4e9a06"/><path d="M77.903 347.316c0 .359-.291.65-.65.65-.359 0-.65-.291-.65-.65 0-.359.291-.65.65-.65.359 0 .65.291.65.65z" fill="#fff"/></g><path d="M69.254 347.316v8.119" stroke="#000" stroke-width=".25" stroke-dasharray="0.25, 0.75000001" fill="none"/><text style="text-align:start;line-height:125%;-inkscape-font-specification:Sans" x="61.969" y="358.672" font-size="4" letter-spacing="0" word-spacing="0" font-family="Sans"><tspan x="61.969" y="358.672">1100</tspan></text><g transform="translate(-8)"><rect width="2.351" height="4.702" x="76.078" y="344.965" rx="1.175" ry="1.175" fill="#4e9a06"/><path d="M77.903 347.316c0 .359-.291.65-.65.65-.359 0-.65-.291-.65-.65 0-.359.291-.65.65-.65.359 0 .65.291.65.65z" fill="#fff"/></g></g></svg>